/* XPM */
static const char * forward2_xpm[] = {
"24 24 39 1",
" 	c None",
".	c #DBDBDB",
"+	c #ACACAC",
"@	c #909090",
"#	c #B2B2B2",
"$	c #D5D5D5",
"%	c #DCDCDC",
"&	c #CFCFCF",
"*	c #BEBEBE",
"=	c #A7A7A7",
"-	c #FEFEFE",
";	c #FAFAFA",
">	c #F3F3F3",
",	c #ECECEC",
"'	c #C7C7C7",
")	c #626262",
"!	c #E3E3E3",
"~	c #A3A3A3",
"{	c #444444",
"]	c #979797",
"^	c #717171",
"/	c #4C4C4C",
"(	c #BFBFBF",
"_	c #20F320",
":	c #A7C6A7",
"<	c #AEAEAE",
"[	c #808080",
"}	c #535353",
"|	c #003600",
"1	c #2FEF2F",
"2	c #A2C8A2",
"3	c #2AF02A",
"4	c #B0C3B0",
"5	c #23F323",
"6	c #8F8F8F",
"7	c #6A6A6A",
"8	c #484848",
"9	c #AFAFAF",
"0	c #5B5B5B",
".+@@@@@@@@@@@@@@@@@@@@@#",
"+$%$$$$$$$$$$$$$$$$$$&*=",
"@%-;;;;;;;;;;;;;;;;>,'=)",
"@$;!*****************~){",
"@$;******************]^/",
"@$;**((((_:(((((((((*<[}",
"@$;**((((|12((((((((*<[}",
"@$;**((((||34(((((((*<[}",
"@$;**((((|||54((((((*<[}",
"6$;**((((||||32(((((*<[}",
"@$;**((((|||||1:((((*<[}",
"@$;**((((||||||_((((*<[}",
"6$;**((((||||||_((((*<[}",
"@$;**((((|||||1:((((*<[}",
"@$;**((((||||32(((((*<[}",
"@$;**((((|||54((((((*<[}",
"@$;**((((||34(((((((*<[}",
"@$;**((((|12((((((((*<[}",
"@$;**((((_:(((((((((*<[}",
"@$>******************][}",
"@$,******************[78",
"@&'~]99999999999999][00{",
"@*=)^[[[[[[[[[[[[[[[70{{",
"#=){/}}}}}}}}}}}}}}}8{{{"};
