/* XPM */
static const char * forward_xpm[] = {
"24 24 137 2",
"  	c None",
". 	c #DBDBDB",
"+ 	c #ACACAC",
"@ 	c #909090",
"# 	c #B2B2B2",
"$ 	c #D5D5D5",
"% 	c #DCDCDC",
"& 	c #CFCFCF",
"* 	c #BEBEBE",
"= 	c #A7A7A7",
"- 	c #FEFEFE",
"; 	c #FAFAFA",
"> 	c #F3F3F3",
", 	c #ECECEC",
"' 	c #C7C7C7",
") 	c #626262",
"! 	c #E3E3E3",
"~ 	c #A3A3A3",
"{ 	c #444444",
"] 	c #979797",
"^ 	c #717171",
"/ 	c #4C4C4C",
"( 	c #BFBFBF",
"_ 	c #000000",
": 	c #484848",
"< 	c #B3B3B3",
"[ 	c #AEAEAE",
"} 	c #808080",
"| 	c #535353",
"1 	c #000400",
"2 	c #4A524A",
"3 	c #8F918F",
"4 	c #002800",
"5 	c #004E00",
"6 	c #366A36",
"7 	c #7A807A",
"8 	c #BCBCBC",
"9 	c #5A8E5A",
"0 	c #007700",
"a 	c #005E00",
"b 	c #041E04",
"c 	c #767A76",
"d 	c #A4A4A4",
"e 	c #8F8F8F",
"f 	c #6C7A6C",
"g 	c #6C876C",
"h 	c #6D8B6D",
"i 	c #6D7A6D",
"j 	c #6D756D",
"k 	c #365C36",
"l 	c #006A00",
"m 	c #007900",
"n 	c #005700",
"o 	c #003600",
"p 	c #1A281A",
"q 	c #959995",
"r 	c #002600",
"s 	c #015D01",
"t 	c #0D6C0D",
"u 	c #115911",
"v 	c #095109",
"w 	c #004F00",
"x 	c #004C00",
"y 	c #003900",
"z 	c #007F00",
"A 	c #007C00",
"B 	c #007400",
"C 	c #005000",
"D 	c #204C20",
"E 	c #3F463F",
"F 	c #143514",
"G 	c #096A09",
"H 	c #499649",
"I 	c #68A068",
"J 	c #378F37",
"K 	c #057F05",
"L 	c #007D00",
"M 	c #007300",
"N 	c #008000",
"O 	c #003500",
"P 	c #A4AEA4",
"Q 	c #A4A6A4",
"R 	c #B7B7B7",
"S 	c #8E958E",
"T 	c #014501",
"U 	c #0C7E0C",
"V 	c #108510",
"W 	c #088208",
"X 	c #007E00",
"Y 	c #006B00",
"Z 	c #005B00",
"` 	c #001F00",
" .	c #575957",
"..	c #8E928E",
"+.	c #003A00",
"@.	c #006C00",
"#.	c #007200",
"$.	c #8E8F8E",
"%.	c #001600",
"&.	c #005C00",
"*.	c #007A00",
"=.	c #081D08",
"-.	c #7E7F7E",
";.	c #9E9E9E",
">.	c #202520",
",.	c #005300",
"'.	c #007800",
").	c #005400",
"!.	c #001100",
"~.	c #5F605F",
"{.	c #5E5F5E",
"].	c #000B00",
"^.	c #003300",
"/.	c #000E00",
"(.	c #000800",
"_.	c #001B00",
":.	c #005800",
"<.	c #001A00",
"[.	c #1A1B1A",
"}.	c #959595",
"|.	c #9A9A9A",
"1.	c #9A9D9A",
"2.	c #747974",
"3.	c #004100",
"4.	c #001900",
"5.	c #060906",
"6.	c #8F928F",
"7.	c #004600",
"8.	c #001200",
"9.	c #9C9C9C",
"0.	c #313531",
"a.	c #181918",
"b.	c #5E5E5E",
"c.	c #9B9B9B",
"d.	c #6A6A6A",
"e.	c #AFAFAF",
"f.	c #5B5B5B",
". + @ @ @ @ @ @ @ @ @ @ @ @ @ @ @ @ @ @ @ @ @ # ",
"+ $ % $ $ $ $ $ $ $ $ $ $ $ $ $ $ $ $ $ $ & * = ",
"@ % - ; ; ; ; ; ; ; ; ; ; ; ; ; ; ; ; > , ' = ) ",
"@ $ ; ! * * * * * * * * * * * * * * * * * ~ ) { ",
"@ $ ; * * * * * * * * * * * * * * * * * * ] ^ / ",
"@ $ ; * * ( ( ( ( _ : < ( ( ( ( ( ( ( ( * [ } | ",
"@ $ ; * * ( ( ( ( { 1 2 ( ( ( ( ( ( ( ( * [ } | ",
"@ $ ; * * ( ( ( ( 3 4 5 6 7 ( ( ( ( ( ( * [ } | ",
"@ $ ; * * ( ( ( ( 8 9 0 a b c d ( ( ( ( * [ } | ",
"e $ ; f g h i j j j k l m n o p q ( ( ( * [ } | ",
"@ $ ; r s t u v w x y a z A B C D E ( ( * [ } | ",
"@ $ ; F G H I J K L M m N N N A l O P Q R [ } | ",
"e $ ; S T U V W N N N N N N N X Y l Z `  .[ } | ",
"@ $ ; ..+.0 N N N N N N N N N X @.#.B o 1 [ } | ",
"@ $ ; $.%.&.z N N X L L X N N N X *.w =.-.[ } | ",
"@ $ ; ;.>.y M m B ,.w w &.m N N '.).!.~.* [ } | ",
"@ $ ; * {.].^.y ^./.(.(._.:.L m ,.<.[.}.* [ } | ",
"@ $ ; * + |.1.1.1.|.|.|.2.3.0 ).4.5.d ( * [ } | ",
"@ $ ; * * ( ( ( ( ( ( ( 6.4 7.8.[.9.( ( * [ } | ",
"@ $ > * * * * * * * * * = 0.(.a.@ * * * * ] } | ",
"@ $ , * * * * * * * * * * b._ c.* * * * * } d.: ",
"@ & ' ~ ] e.e.e.e.e.e.e.e.e.e.e.e.e.e.] } f.f.{ ",
"@ * = ) ^ } } } } } } } } } } } } } } } d.f.{ { ",
"# = ) { / | | | | | | | | | | | | | | | : { { { "};
