/* XPM */
static const char * next_xpm[] = {
"24 24 10 1",
" 	c None",
".	c #031A00",
"+	c #051900",
"@	c #041900",
"#	c #041A00",
"$	c #051800",
"%	c #031800",
"&	c #000005",
"*	c #000006",
"=	c #000004",
"                        ",
"                        ",
"                        ",
"      .+@@@@@@#+        ",
"    @@@@@@@+@@@@@@      ",
"  #@@@@@       @@@$     ",
" %@@@@           @@     ",
" @@@@@           @@@    ",
"#@@@@           @@@@@@  ",
"         &  &&   #@@@   ",
"       &*     &   $@    ",
"      *&      &&        ",
"      =&      &&        ",
"       &*    &&         ",
"       &&    &&         ",
"      &&      &&        ",
"      &*      **        ",
"       &&    &&         ",
"       &&    =&         ",
"      &&      &&        ",
"      &&      &=        ",
"       &     *&         ",
"        &&  &           ",
"                        "};
