/* XPM */
static const char * return_xpm[] = {
"24 24 40 1",
" 	c None",
".	c #234642",
"+	c #183528",
"@	c #0F2918",
"#	c #143122",
"$	c #1D3D36",
"%	c #264949",
"&	c #2B5153",
"*	c #0A220D",
"=	c #091F09",
"-	c #244542",
";	c #21423D",
">	c #0E2817",
",	c #041900",
"'	c #0D2715",
")	c #274D4C",
"!	c #2D5559",
"~	c #0A210D",
"{	c #1A3A30",
"]	c #274A49",
"^	c #081E07",
"/	c #051B02",
"(	c #22443E",
"_	c #254949",
":	c #071D06",
"<	c #2B5154",
"[	c #335B63",
"}	c #0F2A19",
"|	c #071D05",
"1	c #0B230F",
"2	c #1C3B33",
"3	c #335E67",
"4	c #000005",
"5	c #173428",
"6	c #2A4E51",
"7	c #20403A",
"8	c #132E1F",
"9	c #000006",
"0	c #264C4B",
"a	c #000004",
"                        ",
"                        ",
"                        ",
"                        ",
"     .+@#$%             ",
"   &*=$-;>,')           ",
"  !~{     ]^/.          ",
"  (.       _,:<         ",
"[}|123  4   5@6  44     ",
" 7,8  49           4    ",
"  0  94            44   ",
"     a4            44   ",
"      49          44    ",
"      44          44    ",
"     44            44   ",
"     49            99   ",
"      44          44    ",
"      44          a4    ",
"     44            44   ",
"     44            4a   ",
"      4           94    ",
"       44        4      ",
"                        ",
"                        "};
