/* XPM */
static const char * return_xpm[] = {
"24 24 49 1",
" 	c None",
".	c #D7D7E4",
"+	c #A6ACB4",
"@	c #84909C",
"#	c #AFB2B5",
"$	c #D2D2DC",
"%	c #DBDBDE",
"&	c #CDCDD4",
"*	c #BEBEBE",
"=	c #A1A7AD",
"-	c #FDFDFF",
";	c #F9F9FE",
">	c #EFEFFC",
",	c #E6E6FA",
"'	c #C6C6C9",
")	c #50686E",
"!	c #E3E3E3",
"~	c #9CA3AA",
"{	c #506870",
"]	c #2F4F4F",
"^	c #8D97A1",
"/	c #607480",
"(	c #375557",
"_	c #AAAEB2",
":	c #708090",
"<	c #3F5B5F",
"[	c #84909B",
"}	c #A2A1AE",
"|	c #4C487C",
"1	c #9897A8",
"2	c #393571",
"3	c #262166",
"4	c #302B6C",
"5	c #848F9C",
"6	c #7C7998",
"7	c #ABAAB3",
"8	c #423E76",
"9	c #727092",
"0	c #726F92",
"a	c #5F5C87",
"b	c #A1A1AD",
"c	c #7B7997",
"d	c #68668C",
"e	c #85839D",
"f	c #586E78",
"g	c #335253",
"h	c #CDCDD5",
"i	c #ABAFB3",
"j	c #476167",
".+@@@@@@@@@@@@@@@@@@@@@#",
"+$%$$$$$$$$$$$$$$$$$$&*=",
"@%-;;;;;;;;;;;;;;;;>,'=)",
"@$;!*****************~{]",
"@$;******************^/(",
"@$;******************_:<",
"[$;*****}|***********_:<",
"@$;****12|***********_:<",
"@$;***}234||*********_:<",
"5$;**}333333336}*****_:<",
"@$;*1233333333321****_:<",
"@$;*7833333333339****_:<",
"5$;***833333333331***_:<",
"@$;***7|320233333a***_:<",
"@$;****78|*bc33333***_:<",
"@$;******d**b23333***_:<",
"@$;**********93333***_:<",
"@$;**********93333***_:<",
"[$;**********e||||***_:<",
"@$>******************^:<",
"@$,******************:fg",
"@h'~^iiiiiiiiiiiiii^:jj]",
"@*={/:::::::::::::::fj]]",
"#=)](<<<<<<<<<<<<<<<g]]]"};
