/* XPM */
static const char * run_xpm[] = {
"24 24 74 1",
" 	c None",
".	c #A0A0A0",
"+	c #999999",
"@	c #989898",
"#	c #A2A2A2",
"$	c #9A9A9A",
"%	c #969696",
"&	c #B4B4B4",
"*	c #B5B5B5",
"=	c #ADADAD",
"-	c #ACACAC",
";	c #A4A4A4",
">	c #B1B1B1",
",	c #BABABA",
"'	c #CACACA",
")	c #B3B3B3",
"!	c #949494",
"~	c #868686",
"{	c #9F9F9F",
"]	c #BBBBBB",
"^	c #C9C9C9",
"/	c #C0C0C0",
"(	c #CBCBCB",
"_	c #AEAEAE",
":	c #909090",
"<	c #9B9B9B",
"[	c #C8C8C8",
"}	c #9D9D9D",
"|	c #888888",
"1	c #C6C6C6",
"2	c #9C9C9C",
"3	c #A7A7A7",
"4	c #A1A1A1",
"5	c #C1C1C1",
"6	c #CCCCCC",
"7	c #A5A5A5",
"8	c #929292",
"9	c #878787",
"0	c #ABABAB",
"a	c #A8A8A8",
"b	c #CFCFCF",
"c	c #D2D2D2",
"d	c #8D8D8D",
"e	c #979797",
"f	c #8A8A8A",
"g	c #919191",
"h	c #898989",
"i	c #A6A6A6",
"j	c #9E9E9E",
"k	c #828282",
"l	c #A9A9A9",
"m	c #AFAFAF",
"n	c #838383",
"o	c #848484",
"p	c #AAAAAA",
"q	c #C3C3C3",
"r	c #B2B2B2",
"s	c #959595",
"t	c #C5C5C5",
"u	c #D3D3D3",
"v	c #B7B7B7",
"w	c #A3A3A3",
"x	c #BEBEBE",
"y	c #C7C7C7",
"z	c #C4C4C4",
"A	c #CDCDCD",
"B	c #B6B6B6",
"C	c #8C8C8C",
"D	c #BDBDBD",
"E	c #C2C2C2",
"F	c #858585",
"G	c #939393",
"H	c #818181",
"I	c #8B8B8B",
"                        ",
"       ..               ",
"   +@ #$+               ",
"   %.&*=-* .            ",
"   ;>,'')&-!~           ",
"  {-]^//(]_+            ",
"$:#<[    (}#            ",
" |;%1    123#           ",
"  4#[5   62789          ",
"  #0ab^'c-a<d   8e8     ",
" f<43g#;h2# %i #j<2     ",
"  kd ila3{@hfjim*=>& @a ",
"     e$@ nno.pe&q1>r4se ",
"     ~o     pet1t1uv-{  ",
"         k#w-xy   zA>B  ",
"         kC;{(t    bi*l ",
"           ;$'z    Aw32<",
"            ;{bD  z/a4h~",
"           <aC-cA6E@0   ",
"          FgjaG98@w04   ",
"           |  4l-a#2$e  ",
"              ~%$  H~   ",
"              ~HI       ",
"                        "};
