/* XPM */
static const char * run_xpm[] = {
"24 24 46 1",
" 	c None",
".	c #D7D7E4",
"+	c #A6ACB4",
"@	c #84909C",
"#	c #AFB2B5",
"$	c #D2D2DC",
"%	c #DBDBDE",
"&	c #CDCDD4",
"*	c #BEBEBE",
"=	c #A1A7AD",
"-	c #FDFDFF",
";	c #F9F9FE",
">	c #EFEFFC",
",	c #E6E6FA",
"'	c #C6C6C9",
")	c #50686E",
"!	c #E3E3E3",
"~	c #9CA3AA",
"{	c #506870",
"]	c #2F4F4F",
"^	c #8D97A1",
"/	c #607480",
"(	c #375557",
"_	c #69668C",
":	c #AAAEB2",
"<	c #708090",
"[	c #3F5B5F",
"}	c #84909B",
"|	c #4C487C",
"1	c #433E77",
"2	c #ABAAB3",
"3	c #262166",
"4	c #85839D",
"5	c #302B6C",
"6	c #848F9C",
"7	c #726F92",
"8	c #727092",
"9	c #68668C",
"0	c #5F5C87",
"a	c #B4B4B8",
"b	c #2F2B6B",
"c	c #586E78",
"d	c #335253",
"e	c #CDCDD5",
"f	c #ABAFB3",
"g	c #476167",
".+@@@@@@@@@@@@@@@@@@@@@#",
"+$%$$$$$$$$$$$$$$$$$$&*=",
"@%-;;;;;;;;;;;;;;;;>,'=)",
"@$;!*****************~{]",
"@$;******************^/(",
"@$;********_*********:<[",
"}$;********|12*******:<[",
"@$;********|3|2******:<[",
"@$;****4|||5331******:<[",
"6$;****7333333312****:<[",
"@$;****733333333|2***:<[",
"@$;****83333333331***:<[",
"6$;****833333333339**:<[",
"@$;****83333333330***:<[",
"@$;****8333333330a***:<[",
"@$;****4|||b3339*****:<[",
"@$;********|330******:<[",
"@$;********|30a******:<[",
"}$;********|9********:<[",
"@$>********4*********^<[",
"@$,******************<cd",
"@e'~^ffffffffffffff^<gg]",
"@*={/<<<<<<<<<<<<<<<cg]]",
"#=)]([[[[[[[[[[[[[[[d]]]"};
