/* XPM */
static const char * stepover_xpm[] = {
"24 24 53 1",
" 	c None",
".	c #DBDBDB",
"+	c #ACACAC",
"@	c #909090",
"#	c #B2B2B2",
"$	c #D5D5D5",
"%	c #DCDCDC",
"&	c #CFCFCF",
"*	c #BEBEBE",
"=	c #A7A7A7",
"-	c #FEFEFE",
";	c #FAFAFA",
">	c #F3F3F3",
",	c #ECECEC",
"'	c #C7C7C7",
")	c #626262",
"!	c #E3E3E3",
"~	c #A3A3A3",
"{	c #444444",
"]	c #C0C0C0",
"^	c #C2C2C2",
"/	c #BFBFBF",
"(	c #979797",
"_	c #717171",
":	c #4C4C4C",
"<	c #C5C5C5",
"[	c #AEAEAE",
"}	c #808080",
"|	c #535353",
"1	c #BBBBBF",
"2	c #625F8A",
"3	c #262166",
"4	c #A7A6B3",
"5	c #B1B0B9",
"6	c #4E4A7E",
"7	c #8988A1",
"8	c #9D9CAD",
"9	c #302B6C",
"0	c #8F8F8F",
"a	c #3A3572",
"b	c #6C6990",
"c	c #8987A1",
"d	c #757395",
"e	c #3A3672",
"f	c #767396",
"g	c #444078",
"h	c #C1C1C1",
"i	c #C3C3C3",
"j	c #C4C4C4",
"k	c #6A6A6A",
"l	c #484848",
"m	c #AFAFAF",
"n	c #5B5B5B",
".+@@@@@@@@@@@@@@@@@@@@@#",
"+$%$$$$$$$$$$$$$$$$$$&*=",
"@%-;;;;;;;;;;;;;;;;>,'=)",
"@$;!*****************~){",
"@$;*]^^^^^^^^^^^^^^^/(_:",
"@$;*^<<<<<<<<<<<<<<<][}|",
"@$;*^<<<<1234<<<<<<<][}|",
"@$;*^<<<<5636<77<<<<][}|",
"@$;*^<<76<5847997<<<][}|",
"0$;*^<4a36<485b6c<<<][}|",
"@$;*^<<8dc8e36f<<<<<][}|",
"@$;*^<4644e3333b<<<<][}|",
"0$;*^<g33833333321<<][}|",
"@$;*^<5dd833333338<<][}|",
"@$;*^<<<<833333338<<][}|",
"@$;*^<<<<4a33339c<<<][}|",
"@$;*^<<<<<8a333c<<<<][}|",
"@$;*^<<<<<<4888<<<<<][}|",
"@$;*hiiiiiiiiiiiiiij][}|",
"@$>/hhhhhhhhhhhhhhh^/(}|",
"@$,*]]]]]]]]]]]]]]]/*}kl",
"@&'~(mmmmmmmmmmmmmm(}nn{",
"@*=)_}}}}}}}}}}}}}}}kn{{",
"#=){:|||||||||||||||l{{{"};
