/* XPM */
static const char * step_xpm[] = {
"24 24 48 1",
" 	c None",
".	c #2C5355",
"+	c #294F50",
"@	c #2E555A",
"#	c #21423E",
"$	c #0A210B",
"%	c #041900",
"&	c #051A01",
"*	c #18362C",
"=	c #0F2917",
"-	c #0D2716",
";	c #264C4A",
">	c #2E5357",
",	c #294E4E",
"'	c #143022",
")	c #122C1E",
"!	c #122E1E",
"~	c #153125",
"{	c #19382E",
"]	c #254744",
"^	c #254846",
"/	c #30575E",
"(	c #0D2613",
"_	c #345A62",
":	c #0C2513",
"<	c #284C4C",
"[	c #36626B",
"}	c #37646D",
"|	c #1A382F",
"1	c #2F565C",
"2	c #325A62",
"3	c #37636C",
"4	c #2D5457",
"5	c #31585D",
"6	c #345C63",
"7	c #102C1A",
"8	c #051B03",
"9	c #061C05",
"0	c #0D2614",
"a	c #30595E",
"b	c #325A5F",
"c	c #000000",
"d	c #2C5456",
"e	c #274C4B",
"f	c #1F403A",
"g	c #112C1C",
"h	c #335A61",
"i	c #335D65",
"                        ",
"                        ",
"      .+@               ",
"    #$%%&*              ",
"   =%-;>,')             ",
"  !%~     {]            ",
" ^%=      /(_           ",
" :%<     [}|123         ",
"4%&5     678902         ",
" ab   c   d&%e cc       ",
"    cc     fg    c      ",
"   cc      hi    cc     ",
"   cc            cc     ",
"    cc          cc      ",
"    cc          cc      ",
"   cc            cc     ",
"   cc            cc     ",
"    cc          cc      ",
"    cc          cc      ",
"   cc            cc     ",
"   cc            cc     ",
"    c           cc      ",
"     cc        c        ",
"                        "};
