/* XPM */
static const char * step_over_xpm[] = {
"24 24 49 1",
" 	c None",
".	c #D7D7E4",
"+	c #A6ACB4",
"@	c #84909C",
"#	c #AFB2B5",
"$	c #D2D2DC",
"%	c #DBDBDE",
"&	c #CDCDD4",
"*	c #BEBEBE",
"=	c #A1A7AD",
"-	c #FDFDFF",
";	c #F9F9FE",
">	c #EFEFFC",
",	c #E6E6FA",
"'	c #C6C6C9",
")	c #50686E",
"!	c #E3E3E3",
"~	c #9CA3AA",
"{	c #506870",
"]	c #2F4F4F",
"^	c #8D97A1",
"/	c #607480",
"(	c #375557",
"_	c #AAAEB2",
":	c #708090",
"<	c #3F5B5F",
"[	c #84909B",
"}	c #4C487C",
"|	c #A2A1AE",
"1	c #393571",
"2	c #9897A8",
"3	c #302B6C",
"4	c #262166",
"5	c #848F9C",
"6	c #7C7998",
"7	c #727092",
"8	c #423E76",
"9	c #ABAAB3",
"0	c #5F5C87",
"a	c #726F92",
"b	c #7B7997",
"c	c #A1A1AD",
"d	c #68668C",
"e	c #85839D",
"f	c #586E78",
"g	c #335253",
"h	c #CDCDD5",
"i	c #ABAFB3",
"j	c #476167",
".+@@@@@@@@@@@@@@@@@@@@@#",
"+$%$$$$$$$$$$$$$$$$$$&*=",
"@%-;;;;;;;;;;;;;;;;>,'=)",
"@$;!*****************~{]",
"@$;******************^/(",
"@$;******************_:<",
"[$;***********}|*****_:<",
"@$;***********}12****_:<",
"@$;*********}}341|***_:<",
"5$;*****|644444444|**_:<",
"@$;****2144444444412*_:<",
"@$;****7444444444489*_:<",
"5$;***244444444448***_:<",
"@$;***0444441a14}9***_:<",
"@$;***44444bc*}89****_:<",
"@$;***44441c**d******_:<",
"@$;***44447**********_:<",
"@$;***44447**********_:<",
"[$;***}}}}e**********_:<",
"@$>******************^:<",
"@$,******************:fg",
"@h'~^iiiiiiiiiiiiii^:jj]",
"@*={/:::::::::::::::fj]]",
"#=)](<<<<<<<<<<<<<<<g]]]"};
