/* XPM */
static const char * step_in_xpm[] = {
"24 24 42 1",
" 	c None",
".	c #DBDBDB",
"+	c #ACACAC",
"@	c #909090",
"#	c #B2B2B2",
"$	c #D5D5D5",
"%	c #DCDCDC",
"&	c #CFCFCF",
"*	c #BEBEBE",
"=	c #A7A7A7",
"-	c #FEFEFE",
";	c #FAFAFA",
">	c #F3F3F3",
",	c #ECECEC",
"'	c #C7C7C7",
")	c #626262",
"!	c #E3E3E3",
"~	c #A3A3A3",
"{	c #444444",
"]	c #979797",
"^	c #717171",
"/	c #4C4C4C",
"(	c #AEAEAE",
"_	c #808080",
":	c #535353",
"<	c #4C487C",
"[	c #262166",
"}	c #727092",
"|	c #726F92",
"1	c #8F8F8F",
"2	c #A2A1AE",
"3	c #393571",
"4	c #9897A8",
"5	c #302B6C",
"6	c #423E76",
"7	c #ABAAB3",
"8	c #85839D",
"9	c #68668C",
"0	c #6A6A6A",
"a	c #484848",
"b	c #AFAFAF",
"c	c #5B5B5B",
".+@@@@@@@@@@@@@@@@@@@@@#",
"+$%$$$$$$$$$$$$$$$$$$&*=",
"@%-;;;;;;;;;;;;;;;;>,'=)",
"@$;!*****************~){",
"@$;******************]^/",
"@$;******************(_:",
"@$;**<[[[[}**********(_:",
"@$;**<[[[[|**********(_:",
"@$;**<[[[[}**********(_:",
"1$;**<[[[[|***<2*****(_:",
"@$;**<[[[[|***<34****(_:",
"@$;**<[[[[3<<<5[32***(_:",
"1$;**<[[[[[[[[[[[[2**(_:",
"@$;**<[[[[[[[[[[[[34*(_:",
"@$;**<[[[[[[[[[[[[67*(_:",
"@$;**<[[[[[[[[[[[6***(_:",
"@$;**8||||||||3[<7***(_:",
"@$;***********<67****(_:",
"@$;***********9******(_:",
"@$>******************]_:",
"@$,******************_0a",
"@&'~]bbbbbbbbbbbbbb]_cc{",
"@*=)^_______________0c{{",
"#=){/:::::::::::::::a{{{"};
