/* XPM */
static const char * stepi_xpm[] = {
"24 24 39 1",
" 	c None",
".	c #3A7874",
"+	c #356F6A",
"@	c #3D7E79",
"#	c #3B7B76",
"$	c #35706C",
"%	c #070F0E",
"&	c #000000",
"*	c #162D2B",
"=	c #3D7F7A",
"-	c #36726E",
";	c #37716E",
">	c #1F403D",
",	c #132928",
"'	c #356E69",
")	c #17312F",
"!	c #3C7D77",
"~	c #2F615E",
"{	c #0A1514",
"]	c #336A65",
"^	c #336965",
"/	c #040808",
"(	c #010303",
"_	c #1F423F",
":	c #060B0B",
"<	c #0F1F1E",
"[	c #142B28",
"}	c #36716C",
"|	c #18312E",
"1	c #020505",
"2	c #234845",
"3	c #37726D",
"4	c #38736E",
"5	c #306661",
"6	c #0B1615",
"7	c #132826",
"8	c #366F6A",
"9	c #37736E",
"0	c #37716D",
"          .+@#          ",
"          $%&*          ",
"          $%&*          ",
"          $%&*          ",
"       =- $%&*  ;=      ",
"       >,'=%&)!~{]      ",
"       ^/(_:&<[&{#      ",
"        }|&&&&123       ",
"         456&78         ",
"           390          ",
"      &         &&      ",
"    &&            &     ",
"   &&      &&     &&    ",
"   &&             &&    ",
"    &&           &&     ",
"    &&    &&&    &&     ",
"   &&      &&     &&    ",
"   &&      &&     &&    ",
"    &&     &&    &&     ",
"    &&     &&    &&     ",
"   &&      &&     &&    ",
"   &&     &&&&    &&    ",
"    &            &&     ",
"     &&         &       "};
