/* XPM */
static const char * stop3_xpm[] = {
"24 24 97 2",
"  	c None",
". 	c #D7D7E4",
"+ 	c #A6ACB4",
"@ 	c #84909C",
"# 	c #AFB2B5",
"$ 	c #D2D2DC",
"% 	c #DBDBDE",
"& 	c #CDCDD4",
"* 	c #BEBEBE",
"= 	c #A1A7AD",
"- 	c #FDFDFF",
"; 	c #F9F9FE",
"> 	c #EFEFFC",
", 	c #E6E6FA",
"' 	c #C6C6C9",
") 	c #50686E",
"! 	c #E3E3E3",
"~ 	c #9CA3AA",
"{ 	c #506870",
"] 	c #2F4F4F",
"^ 	c #B5B5B5",
"/ 	c #6C6C6C",
"( 	c #3A3A3A",
"_ 	c #8D97A1",
": 	c #607480",
"< 	c #375557",
"[ 	c #6D6D6D",
"} 	c #B0B0B0",
"| 	c #FFB2B2",
"1 	c #FF8B8B",
"2 	c #AAAEB2",
"3 	c #708090",
"4 	c #3F5B5F",
"5 	c #84909B",
"6 	c #616161",
"7 	c #B8B7B7",
"8 	c #FFB4B4",
"9 	c #FF1B1B",
"0 	c #FF0000",
"a 	c #B8B6B6",
"b 	c #635B5B",
"c 	c #B8B8B8",
"d 	c #6E6E6E",
"e 	c #B4B3B3",
"f 	c #FEB7B7",
"g 	c #FF0D0D",
"h 	c #B5B1B1",
"i 	c #727272",
"j 	c #AAAAAA",
"k 	c #FFBDBD",
"l 	c #FF0808",
"m 	c #848F9C",
"n 	c #3D3D3D",
"o 	c #FFB7B7",
"p 	c #FF1E1E",
"q 	c #FF8686",
"r 	c #FFBCBC",
"s 	c #FF7676",
"t 	c #FF8787",
"u 	c #FFCECE",
"v 	c #FF7E7E",
"w 	c #FFB3B3",
"x 	c #FF7777",
"y 	c #FFBEBE",
"z 	c #FFB6B6",
"A 	c #FF0C0C",
"B 	c #FF4F4F",
"C 	c #FF3E3E",
"D 	c #FFC2C2",
"E 	c #FF6161",
"F 	c #FF1818",
"G 	c #FFAAAA",
"H 	c #FF9292",
"I 	c #FF3D3D",
"J 	c #FF5B5B",
"K 	c #FF8080",
"L 	c #FF4949",
"M 	c #FF9898",
"N 	c #FF4242",
"O 	c #FF6666",
"P 	c #FF8D8D",
"Q 	c #FF3636",
"R 	c #FF7474",
"S 	c #FF4646",
"T 	c #FF6C6C",
"U 	c #FF3131",
"V 	c #FF9090",
"W 	c #FF5656",
"X 	c #FF7373",
"Y 	c #FF5D5D",
"Z 	c #FF8888",
"` 	c #FF1D1D",
" .	c #586E78",
"..	c #335253",
"+.	c #CDCDD5",
"@.	c #ABAFB3",
"#.	c #476167",
". + @ @ @ @ @ @ @ @ @ @ @ @ @ @ @ @ @ @ @ @ @ # ",
"+ $ % $ $ $ $ $ $ $ $ $ $ $ $ $ $ $ $ $ $ & * = ",
"@ % - ; ; ; ; ; ; ; ; ; ; ; ; ; ; ; ; > , ' = ) ",
"@ $ ; ! * * * * * * * * * * * * * * * * * ~ { ] ",
"@ $ ; * * * * ^ / ( ( ( ( ( ( / ^ * * * * _ : < ",
"@ $ ; * * * * [ } | 1 1 1 1 | } [ * * * * 2 3 4 ",
"5 $ ; * * * 6 7 8 9 0 0 0 0 9 8 a b * * * 2 3 4 ",
"@ $ ; * c d e f g 0 0 0 0 0 0 g f h d c * 2 3 4 ",
"@ $ ; * i j k l 0 0 0 0 0 0 0 0 l k j i * 2 3 4 ",
"m $ ; * n o p 0 0 0 0 0 0 0 0 0 0 p o n * 2 3 4 ",
"@ $ ; * n q l r s t u v v w l x y l q n * 2 3 4 ",
"@ $ ; * n q z A B C D E E F G H I z q n * 2 3 4 ",
"m $ ; * n q J K L 0 D E E F G H M J q n * 2 3 4 ",
"@ $ ; * n q 0 N x C D E E F G H O 0 q n * 2 3 4 ",
"@ $ ; * n q P Q R S D B T C 1 H U 0 q n * 2 3 4 ",
"@ $ ; * n o p V W 0 X 0 Y Z 0 W ` p o n * 2 3 4 ",
"@ $ ; * i j k l 0 0 0 0 0 0 0 0 l k j i * 2 3 4 ",
"@ $ ; * c d e f g 0 0 0 0 0 0 g f h d c * 2 3 4 ",
"5 $ ; * * * 6 c 8 9 0 0 0 0 9 8 a 6 * * * 2 3 4 ",
"@ $ > * * * * [ } | 1 1 1 1 | } [ * * * * _ 3 4 ",
"@ $ , * * * * ^ / ( ( ( ( ( ( / ^ * * * * 3  ...",
"@ +.' ~ _ @.@.@.@.@.@.@.@.@.@.@.@.@.@._ 3 #.#.] ",
"@ * = { : 3 3 3 3 3 3 3 3 3 3 3 3 3 3 3  .#.] ] ",
"# = ) ] < 4 4 4 4 4 4 4 4 4 4 4 4 4 4 4 ..] ] ] "};
