/* XPM */
static const char * stop_xpm[] = {
"24 24 45 1",
" 	c None",
".	c #D7D7E4",
"+	c #A6ACB4",
"@	c #84909C",
"#	c #AFB2B5",
"$	c #D2D2DC",
"%	c #DBDBDE",
"&	c #CDCDD4",
"*	c #BEBEBE",
"=	c #A1A7AD",
"-	c #FDFDFF",
";	c #F9F9FE",
">	c #EFEFFC",
",	c #E6E6FA",
"'	c #C6C6C9",
")	c #50686E",
"!	c #E3E3E3",
"~	c #9CA3AA",
"{	c #506870",
"]	c #2F4F4F",
"^	c #8D97A1",
"/	c #607480",
"(	c #375557",
"_	c #EF3030",
":	c #E35353",
"<	c #AAAEB2",
"[	c #708090",
"}	c #3F5B5F",
"|	c #84909B",
"1	c #C6A6A6",
"2	c #F32424",
"3	c #FF0000",
"4	c #E74747",
"5	c #C2B2B2",
"6	c #848F9C",
"7	c #DE5F5F",
"8	c #FB0C0C",
"9	c #D67777",
"0	c #DA6B6B",
"a	c #DF5F5F",
"b	c #586E78",
"c	c #335253",
"d	c #CDCDD5",
"e	c #ABAFB3",
"f	c #476167",
".+@@@@@@@@@@@@@@@@@@@@@#",
"+$%$$$$$$$$$$$$$$$$$$&*=",
"@%-;;;;;;;;;;;;;;;;>,'=)",
"@$;!*****************~{]",
"@$;******************^/(",
"@$;******______:*****<[}",
"|$;****12333333345***<[}",
"@$;***1_3333333334***<[}",
"@$;***233333333333:**<[}",
"6$;**_33333333333337*<[}",
"@$;**_33333333333337*<[}",
"@$;**_33333333333337*<[}",
"6$;**_33333333333337*<[}",
"@$;**_33333333333337*<[}",
"@$;**_33333333333337*<[}",
"@$;**:33333333333389*<[}",
"@$;***4333333333339**<[}",
"@$;***543333333330***<[}",
"|$;*****:33333389****<[}",
"@$>******aaaaaa9*****^[}",
"@$,******************[bc",
"@d'~^eeeeeeeeeeeeee^[ff]",
"@*={/[[[[[[[[[[[[[[[bf]]",
"#=)](}}}}}}}}}}}}}}}c]]]"};
