/* XPM */
static const char *right_xpm[] = {
/* width height ncolors chars_per_pixel */
"20 20 2 1",
/* colors */
"  c darkgreen",
". c none",
/* pixels */
"....................",
"....................",
".......... .........",
"..........  ........",
"..........   .......",
"..........    ......",
"..........     .....",
"...             ....",
"...              ...",
"...               ..",
"...               ..",
"...              ...",
"...             ....",
"..........     .....",
"..........    ......",
"..........   .......",
"..........  ........",
".......... .........",
"....................",
"...................."
};
