/* XPM */
static const char * stop_mini_xpm[] = {
"17 18 56 1",
" 	c None",
".	c #2E2E2E",
"+	c #737373",
"@	c #FFE0E0",
"#	c #FFA2A2",
"$	c #777777",
"%	c #F9E6E6",
"&	c #FF4D4D",
"*	c #FF0000",
"=	c #787878",
"-	c #EEEEEE",
";	c #FF4444",
">	c #6D6D6D",
",	c #F5E8E8",
"'	c #FF4949",
")	c #FF0101",
"!	c #313131",
"~	c #FFE5E5",
"{	c #FF4F4F",
"]	c #FF9E9E",
"^	c #FF5858",
"/	c #FF6363",
"(	c #FF2727",
"_	c #FF7474",
":	c #FF1616",
"<	c #FF3D3D",
"[	c #FF5D5D",
"}	c #FF6D6D",
"|	c #FF6767",
"1	c #FF8B8B",
"2	c #FFB2B2",
"3	c #FF9595",
"4	c #FF7E7E",
"5	c #FF3636",
"6	c #FFD3D3",
"7	c #FF9292",
"8	c #FF0707",
"9	c #FF1F1F",
"0	c #FF8686",
"a	c #FFCECE",
"b	c #FF7979",
"c	c #FF5555",
"d	c #FF9F9F",
"e	c #FFB9B9",
"f	c #FFD8D8",
"g	c #FF3535",
"h	c #FF2424",
"i	c #FFAAAA",
"j	c #FF4242",
"k	c #FF8888",
"l	c #FF6B6B",
"m	c #FF8080",
"n	c #FF3C3C",
"o	c #FF1414",
"p	c #FF4646",
"q	c #FF3838",
"     .......     ",
"    +@#####@+    ",
"   $%&*****&%$   ",
"  =-;*******;-=  ",
" >,')*******)',> ",
"!~{***********{~!",
"!]*^/(__:_<*/^*]!",
"!][}|1213[456}[]!",
"!]7<890'a*bca<7]!",
"!]*de90'a*bcfd*]!",
"!]g:hi0'a*bca**]!",
"!]j0k&0'l1m(a**]!",
"!~{gn*ho8ph*q*{~!",
" >,')*******)',> ",
"  =-;*******;-=  ",
"   $%&*****&%$   ",
"    +@#####@+    ",
"     .......     "};
