/* XPM */
static const char* warning_xpm [] = {
"32 32 2 1",
"   s None  c None",
".  m black c black",
"                                ",
"           ..........           ",
"         ..............         ",
"       ..................       ",
"      ....................      ",
"     ..........  ..........     ",
"    ..........    ..........    ",
"   ..........      ..........   ",
"   ..........      ..........   ",
"  ...........      ...........  ",
"  ...........      ...........  ",
" ............      ............ ",
" ............      ............ ",
" ............      ............ ",
" ............      ............ ",
" ............      ............ ",
" ............      ............ ",
" .............    ............. ",
" ..............  .............. ",
" .............................. ",
" .............................. ",
"  ............................  ",
"  ............................  ",
"   ...........    ...........   ",
"   ..........      ..........   ",
"    .........      .........    ",
"     .........    .........     ",
"      ....................      ",
"       ..................       ",
"         ..............         ",
"           ..........           ",
"                                "};

