/* XPM */
static const char * zeroicon_xpm[] = {
"29 30 2 1",
" 	c None",
".	c #373737",
".........................    ",
"...........................  ",
"............................ ",
"............................ ",
".............................",
".............................",
".............................",
"                   ..........",
"                   ..........",
"                 ............",
"               ............. ",
"             ............... ",
"           ................  ",
"        .................    ",
"      .................      ",
"    .................        ",
"  ................           ",
" ...............             ",
" .............               ",
"............                 ",
"..........                   ",
"........                     ",
"........                     ",
".............................",
".............................",
" ............................",
" ............................",
"  ...........................",
"   ..........................",
"     ........................"};
